<?xml version="1.0" encoding="UTF-8" standalone="no"?>
<svg
   xmlns:dc="http://purl.org/dc/elements/1.1/"
   xmlns:cc="http://creativecommons.org/ns#"
   xmlns:rdf="http://www.w3.org/1999/02/22-rdf-syntax-ns#"
   xmlns:svg="http://www.w3.org/2000/svg"
   xmlns="http://www.w3.org/2000/svg"
   xmlns:sodipodi="http://sodipodi.sourceforge.net/DTD/sodipodi-0.dtd"
   xmlns:inkscape="http://www.inkscape.org/namespaces/inkscape"
   fill="#FFFFFF"
   height="24"
   viewBox="0 0 24 24"
   width="24"
   id="svg4186"
   version="1.1"
   inkscape:version="0.91 r13725"
   sodipodi:docname="ic_action_skip.svg">
  <metadata
     id="metadata4196">
    <rdf:RDF>
      <cc:Work
         rdf:about="">
        <dc:format>image/svg+xml</dc:format>
        <dc:type
           rdf:resource="http://purl.org/dc/dcmitype/StillImage" />
        <dc:title></dc:title>
      </cc:Work>
    </rdf:RDF>
  </metadata>
  <defs
     id="defs4194" />
  <sodipodi:namedview
     pagecolor="#ff5722"
     bordercolor="#666666"
     borderopacity="1"
     objecttolerance="10"
     gridtolerance="10"
     guidetolerance="10"
     inkscape:pageopacity="0"
     inkscape:pageshadow="2"
     inkscape:window-width="1920"
     inkscape:window-height="1016"
     id="namedview4192"
     showgrid="false"
     inkscape:showpageshadow="false"
     showguides="true"
     inkscape:guide-bbox="true"
     inkscape:zoom="32.125"
     inkscape:cx="12.017495"
     inkscape:cy="7.0227062"
     inkscape:window-x="0"
     inkscape:window-y="27"
     inkscape:window-maximized="1"
     inkscape:current-layer="svg4186">
    <sodipodi:guide
       position="0,0"
       orientation="1,0"
       id="guide4198" />
    <sodipodi:guide
       position="11,12"
       orientation="1,0"
       id="guide4204" />
    <sodipodi:guide
       id="guide4206"
       orientation="1,0"
       position="24,24" />
    <sodipodi:guide
       position="0,0"
       orientation="0,1"
       id="guide4210" />
    <sodipodi:guide
       position="24,24"
       orientation="0,1"
       id="guide4212" />
    <sodipodi:guide
       position="12,12"
       orientation="1,1"
       id="guide4253" />
    <sodipodi:guide
       id="guide4255"
       orientation="1,1"
       position="12,9" />
    <sodipodi:guide
       position="12,6"
       orientation="1,1"
       id="guide4257" />
    <sodipodi:guide
       id="guide4259"
       orientation="1,1"
       position="12,3" />
    <sodipodi:guide
       position="12,0"
       orientation="1,1"
       id="guide4261" />
    <sodipodi:guide
       id="guide4328"
       orientation="1,1"
       position="12,-3" />
    <sodipodi:guide
       position="12,-6"
       orientation="1,1"
       id="guide4330" />
    <sodipodi:guide
       id="guide4338"
       orientation="1,1"
       position="12,-9" />
    <sodipodi:guide
       position="12,-12"
       orientation="1,1"
       id="guide4340" />
  </sodipodi:namedview>
  <path
     d="M0 0h24v24H0z"
     fill="none"
     id="path4188" />
  <path
     d="m 11.748519,8 0,5 -4.2799998,2.54 -0.72,-1.21 3.4999998,-2.08 0,-4.25 1.5,0 z"
     id="path4190"
     inkscape:connector-curvature="0"
     inkscape:transform-center-x="2.5" />
  <path
     style="color:#000000;font-style:normal;font-variant:normal;font-weight:normal;font-stretch:normal;font-size:medium;line-height:normal;font-family:sans-serif;text-indent:0;text-align:start;text-decoration:none;text-decoration-line:none;text-decoration-style:solid;text-decoration-color:#000000;letter-spacing:normal;word-spacing:normal;text-transform:none;direction:ltr;block-progression:tb;writing-mode:lr-tb;baseline-shift:baseline;text-anchor:start;white-space:normal;clip-rule:nonzero;display:inline;overflow:visible;visibility:visible;opacity:1;isolation:auto;mix-blend-mode:normal;color-interpolation:sRGB;color-interpolation-filters:linearRGB;solid-color:#000000;solid-opacity:1;fill:#ffffff;fill-opacity:1;fill-rule:nonzero;stroke:none;stroke-width:2;stroke-linecap:butt;stroke-linejoin:miter;stroke-miterlimit:4;stroke-dasharray:none;stroke-dashoffset:0;stroke-opacity:1;color-rendering:auto;image-rendering:auto;shape-rendering:auto;text-rendering:auto;enable-background:accumulate"
     d="M 11 3 C 6.0412819 3 2 7.0412819 2 12 C 2 15.732968 4.2912353 18.944317 7.5390625 20.304688 L 8.3066406 18.464844 C 5.7731933 17.413638 4 14.922354 4 12 C 4 8.1221621 7.1221621 5 11 5 C 14.877838 5 18 8.1221621 18 12 L 14.990234 12 L 18.996094 15.994141 L 22.990234 12 L 20 12 C 20 7.0412819 15.958718 3 11 3 z M 16.412109 16.412109 C 16.129997 16.759418 15.810698 17.073448 15.46875 17.361328 L 16.748047 18.896484 C 17.137111 18.570969 17.506264 18.221463 17.835938 17.835938 L 16.412109 16.412109 z M 14.519531 18.033203 C 14.108394 18.275947 13.671216 18.478057 13.210938 18.632812 L 13.84375 20.53125 C 14.434809 20.332732 14.997767 20.072861 15.527344 19.761719 L 14.519531 18.033203 z M 9.8496094 18.898438 L 9.5214844 20.867188 C 10.003753 20.947578 10.495444 21 11 21 C 11.252428 21 11.498902 20.979574 11.746094 20.958984 L 11.580078 18.966797 C 11.388056 18.982697 11.196448 19 11 19 C 10.606941 19 10.224676 18.960127 9.8496094 18.898438 z "
     id="path4216" />
</svg>
