<?xml version="1.0" encoding="UTF-8" standalone="no"?>
<!-- Created with Inkscape (http://www.inkscape.org/) -->

<svg
   xmlns:dc="http://purl.org/dc/elements/1.1/"
   xmlns:cc="http://creativecommons.org/ns#"
   xmlns:rdf="http://www.w3.org/1999/02/22-rdf-syntax-ns#"
   xmlns:svg="http://www.w3.org/2000/svg"
   xmlns="http://www.w3.org/2000/svg"
   xmlns:sodipodi="http://sodipodi.sourceforge.net/DTD/sodipodi-0.dtd"
   xmlns:inkscape="http://www.inkscape.org/namespaces/inkscape"
   width="48"
   height="48"
   id="svg2"
   version="1.1"
   inkscape:version="0.91 r13725"
   sodipodi:docname="ic_launcher.svg"
   inkscape:export-filename="/home/tughi/Projects/memoria/app/src/main/res/drawable-xxhdpi/ic_launcher.png"
   inkscape:export-xdpi="270"
   inkscape:export-ydpi="270">
  <defs
     id="defs4">
    <linearGradient
       id="linearGradient3817">
      <stop
         style="stop-color:#4caf50;stop-opacity:1"
         offset="0"
         id="stop3819" />
      <stop
         id="stop3831"
         offset="0.2"
         style="stop-color:#4caf50;stop-opacity:1;" />
      <stop
         style="stop-color:#f44336;stop-opacity:1;"
         offset="0.80000001"
         id="stop3833" />
      <stop
         style="stop-color:#f44336;stop-opacity:1"
         offset="1"
         id="stop3821" />
    </linearGradient>
    <filter
       inkscape:collect="always"
       id="filter4033">
      <feGaussianBlur
         inkscape:collect="always"
         stdDeviation="0.9"
         id="feGaussianBlur4035" />
    </filter>
  </defs>
  <sodipodi:namedview
     id="base"
     pagecolor="#ffffff"
     bordercolor="#666666"
     borderopacity="1.0"
     inkscape:pageopacity="0.0"
     inkscape:pageshadow="2"
     inkscape:zoom="17.041667"
     inkscape:cx="24"
     inkscape:cy="24"
     inkscape:document-units="px"
     inkscape:current-layer="layer2"
     showgrid="false"
     inkscape:showpageshadow="false"
     showguides="false"
     inkscape:guide-bbox="true"
     inkscape:window-width="1920"
     inkscape:window-height="1014"
     inkscape:window-x="0"
     inkscape:window-y="27"
     inkscape:window-maximized="1"
     inkscape:snap-others="true"
     inkscape:snap-object-midpoints="true"
     inkscape:snap-to-guides="true"
     inkscape:snap-page="true"
     inkscape:snap-global="true">
    <sodipodi:guide
       orientation="1,0"
       position="24,24"
       id="guide2987" />
    <sodipodi:guide
       orientation="1,0"
       position="2,24"
       id="guide2993" />
    <sodipodi:guide
       id="guide2995"
       position="4,24"
       orientation="1,0" />
    <sodipodi:guide
       orientation="0,1"
       position="24,8"
       id="guide3767" />
    <sodipodi:guide
       orientation="0,1"
       position="24,40"
       id="guide3803" />
    <sodipodi:guide
       orientation="0,1"
       position="24,24"
       id="guide3825" />
    <sodipodi:guide
       orientation="1,0"
       position="12,24"
       id="guide3827" />
    <sodipodi:guide
       orientation="1,0"
       position="36,24"
       id="guide3829" />
    <inkscape:grid
       type="xygrid"
       id="grid4201" />
  </sodipodi:namedview>
  <metadata
     id="metadata7">
    <rdf:RDF>
      <cc:Work
         rdf:about="">
        <dc:format>image/svg+xml</dc:format>
        <dc:type
           rdf:resource="http://purl.org/dc/dcmitype/StillImage" />
        <dc:title />
      </cc:Work>
    </rdf:RDF>
  </metadata>
  <g
     inkscape:groupmode="layer"
     id="layer3"
     inkscape:label="Refresh"
     style="display:inline">
    <path
       style="opacity:0.75;fill:#000000;fill-opacity:1;stroke:none;filter:url(#filter4033)"
       d="M 24,4.5 C 12.954305,4.5 4,13.454305 4,24.5 4,29.132343 5.5752026,33.390783 8.21875,36.78125 7.3773727,38.704203 6.59258,40.322794 5.75,42.1875 8.988458,43.511568 12.802549,43.851055 16.71875,43.125 18.978098,44.010059 21.426919,44.5 24,44.5 35.045695,44.5 44,35.545695 44,24.5 44,19.867657 42.424797,15.609217 39.78125,12.21875 40.622627,10.295797 41.40742,8.6772059 42.25,6.8125 39.011542,5.4884318 35.197451,5.1489452 31.28125,5.875 29.021902,4.9899412 26.573081,4.5 24,4.5 z"
       id="path3984"
       inkscape:connector-curvature="0" />
    <path
       style="font-size:medium;font-style:normal;font-variant:normal;font-weight:normal;font-stretch:normal;text-indent:0;text-align:start;text-decoration:none;line-height:normal;letter-spacing:normal;word-spacing:normal;text-transform:none;direction:ltr;block-progression:tb;writing-mode:lr-tb;text-anchor:start;baseline-shift:baseline;color:#000000;fill:#f1f8e9;fill-opacity:1;stroke:none;stroke-width:8;marker:none;visibility:visible;display:inline;overflow:visible;enable-background:accumulate;font-family:Sans;-inkscape-font-specification:Sans"
       d="m 4.0000001,24 c -3e-7,5.499158 2.2497896,10.499789 5.8749999,14.125 L 15.5,32.5 C 13.33435,30.33435 12,27.337398 12.000001,24 12,17.325204 17.325204,12 24,12.000001 24.581226,12 25.160768,12.046711 25.71875,12.125 25.044149,10.835603 24.454732,9.463528 24,8.0000008 26.359882,6.6982391 28.826123,5.8278013 31.25,5.3749998 28.995148,4.4886358 26.559168,3.9999995 24,3.9999998 13.001684,4 3.9999999,13.001684 4.0000001,24 z"
       id="path3914"
       inkscape:connector-curvature="0" />
    <path
       style="font-size:medium;font-style:normal;font-variant:normal;font-weight:normal;font-stretch:normal;text-indent:0;text-align:start;text-decoration:none;line-height:normal;letter-spacing:normal;word-spacing:normal;text-transform:none;direction:ltr;block-progression:tb;writing-mode:lr-tb;text-anchor:start;baseline-shift:baseline;color:#000000;fill:#aed581;fill-opacity:1;stroke:none;stroke-width:8;marker:none;visibility:visible;display:inline;overflow:visible;enable-background:accumulate;font-family:Sans;-inkscape-font-specification:Sans"
       d="M 16.75,42.625 C 19.004852,43.511364 21.440832,44 24,44 34.998316,44 44,34.998316 44.000001,24 44.000001,18.500842 41.750212,13.500211 38.125,9.8749998 L 32.5,15.5 C 34.66565,17.665651 36,20.662602 35.999999,24 36,30.674796 30.674796,36 24,36 c -0.581225,0 -1.160768,-0.04671 -1.71875,-0.125 0.674602,1.289397 1.264018,2.661472 1.71875,4.124999 -2.359882,1.301762 -4.826123,2.1722 -7.25,2.625001 z"
       id="path3961"
       inkscape:connector-curvature="0" />
    <path
       style="fill:#f1f8e9;fill-opacity:1;stroke:none"
       d="m 11.995389,26.13899 c -0.933718,2.630717 -1.616868,4.853054 -2.8377764,7.885766 -1.220908,3.032712 -2.2680951,5.108495 -3.4175567,7.652358 C 10.99113,43.824055 17.816993,43.410676 24,39.999999 21.904786,33.25668 17.269304,28.229196 11.995389,26.13899 z"
       id="path3944"
       inkscape:connector-curvature="0"
       inkscape:transform-center-y="10.56787"
       inkscape:transform-center-x="9.1299718" />
    <path
       inkscape:transform-center-x="-9.1299719"
       inkscape:transform-center-y="-10.567869"
       inkscape:connector-curvature="0"
       id="path3963"
       d="m 36.004611,21.861011 c 0.933718,-2.630718 1.616868,-4.853055 2.837776,-7.885766 1.220908,-3.032713 2.268095,-5.1084961 3.417557,-7.6523587 C 37.00887,4.1759447 30.183007,4.5893242 24,8.0000008 26.095214,14.74332 30.730696,19.770804 36.004611,21.861011 z"
       style="fill:#aed581;fill-opacity:1;stroke:none" />
  </g>
  <g
     inkscape:groupmode="layer"
     id="layer2"
     inkscape:label="Brain"
     style="display:inline">
    <path
       style="opacity:0.15;fill:#000000;fill-opacity:1;stroke:none"
       d="M 32.96875,12.59375 12.375,33.1875 23.15625,43.96875 C 23.435876,43.980347 23.717524,44 24,44 c 11.045695,0 20,-8.954305 20,-20 0,-0.125404 0.0023,-0.250145 0,-0.375 L 32.96875,12.59375 z"
       id="rect4085"
       inkscape:connector-curvature="0" />
    <path
       style="color:#000000;font-style:normal;font-variant:normal;font-weight:normal;font-stretch:normal;font-size:medium;line-height:normal;font-family:Sans;-inkscape-font-specification:Sans;text-indent:0;text-align:start;text-decoration:none;text-decoration-line:none;text-decoration-style:solid;text-decoration-color:#000000;letter-spacing:normal;word-spacing:normal;text-transform:none;direction:ltr;block-progression:tb;writing-mode:lr-tb;baseline-shift:baseline;text-anchor:start;white-space:normal;clip-rule:nonzero;display:inline;overflow:visible;visibility:visible;opacity:1;isolation:auto;mix-blend-mode:normal;color-interpolation:sRGB;color-interpolation-filters:linearRGB;solid-color:#000000;solid-opacity:1;fill:#33691e;fill-opacity:1;fill-rule:nonzero;stroke:none;stroke-width:3;stroke-linecap:round;stroke-linejoin:round;stroke-miterlimit:4;stroke-dasharray:none;stroke-dashoffset:0;stroke-opacity:1;marker:none;color-rendering:auto;image-rendering:auto;shape-rendering:auto;text-rendering:auto;enable-background:accumulate"
       d="m 21.072266,9.7675781 a 1.50015,1.50015 0 0 0 -0.05078,0.00391 c -0.0038,3.061e-4 -0.006,0.00359 -0.0098,0.00391 l 0.02148,0.00195 c -0.0094,8.274e-4 -0.01796,-9.054e-4 -0.02734,0 -1.259605,0.109552 -2.234537,0.9139982 -2.757812,1.8554682 -0.143847,0.258809 -0.183767,0.563196 -0.269531,0.84961 -0.352207,-0.109422 -0.702874,-0.240602 -1.101563,-0.173828 -3.023651,0.466335 -5.014622,2.903338 -6.017578,5.298828 -0.706726,1.467015 -0.612661,3.171024 0.171875,4.544922 -1.1803535,0.526907 -2.054073,1.652781 -1.9257812,3.103515 -0.00973,1.864952 0.9820322,3.30888 1.8554692,4.357422 a 1.50015,1.50015 0 0 0 0.02344,0.02734 c 0.07754,0.08863 0.14834,0.289434 0.222656,0.851563 0.07432,0.562128 0.120315,1.452992 0.746094,2.341796 a 1.50015,1.50015 0 0 0 0.201172,0.232422 c 0.79383,0.743658 1.904721,0.806476 2.808594,0.550782 0.06733,0.599687 0.03831,1.207679 0.330078,1.779296 a 1.50015,1.50015 0 0 0 0.08398,0.144532 c 1.402071,2.122428 3.895186,3.173154 6.316406,3.019531 0.640533,8.1e-5 1.212649,-0.06257 1.746094,-0.285156 0.197761,-0.08252 0.382847,-0.200175 0.558594,-0.330079 0.175747,0.129904 0.360832,0.247561 0.558594,0.330079 0.533445,0.222583 1.105561,0.285237 1.746093,0.285156 2.421221,0.153623 4.912382,-0.897103 6.314454,-3.019531 a 1.50015,1.50015 0 0 0 0.08594,-0.144532 c 0.291764,-0.571617 0.262749,-1.179609 0.330078,-1.779296 0.903792,0.255479 2.014922,0.192728 2.808594,-0.550782 a 1.50015,1.50015 0 0 0 0.201172,-0.232422 c 0.625778,-0.888804 0.671779,-1.779668 0.746093,-2.341796 0.07432,-0.562129 0.145114,-0.762936 0.222657,-0.851563 a 1.50015,1.50015 0 0 0 0.02344,-0.02734 c 0.873436,-1.048542 1.865196,-2.49247 1.855469,-4.357422 0.128285,-1.450549 -0.745663,-2.576495 -1.925781,-3.103515 0.784536,-1.373898 0.8786,-3.077907 0.171875,-4.544922 -1.002956,-2.39549 -2.993928,-4.832493 -6.017578,-5.298828 -0.39869,-0.06677 -0.749356,0.06441 -1.101563,0.173828 -0.08576,-0.286414 -0.125684,-0.590801 -0.269531,-0.84961 -0.523275,-0.94147 -1.498204,-1.745912 -2.757813,-1.8554682 -0.0094,-9.054e-4 -0.01798,8.274e-4 -0.02734,0 l 0.02148,-0.00195 c -0.0037,-3.185e-4 -0.006,-0.0036 -0.0098,-0.00391 a 1.50015,1.50015 0 0 0 -0.15039,-0.00391 1.50015,1.50015 0 0 0 -0.109375,0.00781 c -1.142123,-0.017329 -2.081226,0.5340764 -2.716797,1.3007814 -0.634138,-0.764954 -1.5704,-1.3154244 -2.708985,-1.3007814 a 1.50015,1.50015 0 0 0 -0.216796,-0.00781 z"
       id="path4232" />
    <path
       style="color:#000000;font-style:normal;font-variant:normal;font-weight:normal;font-stretch:normal;font-size:medium;line-height:normal;font-family:Sans;-inkscape-font-specification:Sans;text-indent:0;text-align:start;text-decoration:none;text-decoration-line:none;letter-spacing:normal;word-spacing:normal;text-transform:none;direction:ltr;block-progression:tb;writing-mode:lr-tb;baseline-shift:baseline;text-anchor:start;display:inline;overflow:visible;visibility:visible;fill:#ffffff;fill-opacity:1;stroke:none;stroke-width:2;marker:none;enable-background:accumulate"
       d="m 21.142977,11.266556 c -1.385116,0.11295 -2.254497,1.794634 -1.756611,3.042977 0.174617,0.984211 0.706805,2.160697 0.0074,3.04746 -0.67623,0.302092 -0.489008,-1.122036 -0.591712,-1.824139 -0.102704,-0.702103 -0.667671,-1.922298 -1.680509,-1.747868 -2.330844,0.350921 -4.044427,2.357724 -4.904984,4.439058 -0.70223,1.419409 -0.307715,3.290399 1.00307,4.219011 1.572202,1.407699 3.578463,2.242142 5.637899,2.616312 1.081088,0.470612 0.351476,0.78497 -0.886748,0.651648 -1.741312,-0.329902 -3.406669,-1.057849 -4.783222,-2.180108 -1.120722,-0.703756 -2.776556,0.32011 -2.612057,1.645304 -0.04584,1.341058 0.715823,2.490242 1.537133,3.476208 0.819516,0.936664 0.376192,2.337136 1.067206,3.318596 0.993867,0.931052 2.398062,0.02642 2.701124,-1.107626 0.284013,-1.197506 1.88354,-1.854799 2.859247,-1.053989 0.51565,0.679753 -1.441849,0.06347 -1.789112,0.643243 -0.775202,1.380676 -0.995845,2.940921 -0.321678,4.261733 1.06358,1.610027 3.102857,2.490775 5.004283,2.357988 2.176923,0.02138 1.983915,-1.115465 1.970489,-2.173028 -0.01341,-1.057563 0.226826,-2.168531 -0.959956,-1.798347 -0.49952,0.240804 -2.637195,0.517896 -2.488774,-0.0023 1.336212,-0.222468 2.95567,-0.815235 3.302793,-2.287605 0.170823,-0.922764 0.345818,-2.044992 -0.1333,-2.867506 -0.836302,-0.687955 0.21801,-0.260273 0.185644,-2.394671 0.09654,-1.278275 0.338316,-2.683848 -0.28084,-3.865912 -0.622496,-0.652768 -0.717829,0.168326 -2.545787,0.172245 -1.873207,0.06471 -3.879188,-0.566574 -5.128393,-2.019284 -1.229637,0.83582 0.662575,-2.066818 0.603014,-0.708035 -0.699103,0.472101 2.012942,1.640194 3.176842,1.88583 1.271055,0.258436 2.61755,-0.04658 3.67096,-0.786512 0.776588,-0.814839 0.553884,-2.058762 0.64358,-3.086865 -0.03757,-1.530863 0.07103,-3.137743 -0.469469,-4.594471 -0.373342,-0.749784 -1.16482,-1.367473 -2.03747,-1.279331 z"
       id="path3359"
       inkscape:connector-curvature="0"
       sodipodi:nodetypes="ccczcccccccccccccczccccccccccccccc"
       inkscape:transform-center-x="6.8907597"
       inkscape:transform-center-y="0.17335093" />
    <path
       inkscape:transform-center-y="0.17335093"
       inkscape:transform-center-x="-6.8907597"
       sodipodi:nodetypes="ccczcccccccccccccczccccccccccccccc"
       inkscape:connector-curvature="0"
       id="path4234"
       d="m 26.852647,11.266556 c 1.385116,0.11295 2.254497,1.794634 1.756611,3.042977 -0.174617,0.984211 -0.706805,2.160697 -0.0074,3.04746 0.67623,0.302092 0.489008,-1.122036 0.591712,-1.824139 0.102704,-0.702103 0.667671,-1.922298 1.680509,-1.747868 2.330844,0.350921 4.044427,2.357724 4.904984,4.439058 0.70223,1.419409 0.307715,3.290399 -1.00307,4.219011 -1.572202,1.407699 -3.578463,2.242142 -5.637899,2.616312 -1.081088,0.470612 -0.351476,0.78497 0.886748,0.651648 1.741312,-0.329902 3.406669,-1.057849 4.783222,-2.180108 1.120722,-0.703756 2.776556,0.32011 2.612057,1.645304 0.04584,1.341058 -0.715823,2.490242 -1.537133,3.476208 -0.819516,0.936664 -0.376192,2.337136 -1.067206,3.318596 -0.993867,0.931052 -2.398062,0.02642 -2.701124,-1.107626 -0.284013,-1.197506 -1.88354,-1.854799 -2.859247,-1.053989 -0.51565,0.679753 1.441849,0.06347 1.789112,0.643243 0.775202,1.380676 0.995845,2.940921 0.321678,4.261733 -1.06358,1.610027 -3.102857,2.490775 -5.004283,2.357988 -2.176923,0.02138 -1.983915,-1.115465 -1.970489,-2.173028 0.01341,-1.057563 -0.226826,-2.168531 0.959956,-1.798347 0.49952,0.240804 2.637195,0.517896 2.488774,-0.0023 -1.336212,-0.222468 -2.95567,-0.815235 -3.302793,-2.287605 -0.170823,-0.922764 -0.345818,-2.044992 0.1333,-2.867506 0.836302,-0.687955 -0.21801,-0.260273 -0.185644,-2.394671 -0.09654,-1.278275 -0.338316,-2.683848 0.28084,-3.865912 0.622496,-0.652768 0.717829,0.168326 2.545787,0.172245 1.873207,0.06471 3.879188,-0.566574 5.128393,-2.019284 1.229637,0.83582 -0.662575,-2.066818 -0.603014,-0.708035 0.699103,0.472101 -2.012942,1.640194 -3.176842,1.88583 -1.271055,0.258436 -2.61755,-0.04658 -3.67096,-0.786512 -0.776588,-0.814839 -0.553884,-2.058762 -0.64358,-3.086865 0.03757,-1.530863 -0.07103,-3.137743 0.469469,-4.594471 0.373342,-0.749784 1.16482,-1.367473 2.03747,-1.279331 z"
       style="color:#000000;font-style:normal;font-variant:normal;font-weight:normal;font-stretch:normal;font-size:medium;line-height:normal;font-family:Sans;-inkscape-font-specification:Sans;text-indent:0;text-align:start;text-decoration:none;text-decoration-line:none;letter-spacing:normal;word-spacing:normal;text-transform:none;direction:ltr;block-progression:tb;writing-mode:lr-tb;baseline-shift:baseline;text-anchor:start;display:inline;overflow:visible;visibility:visible;fill:#ffffff;fill-opacity:1;stroke:none;stroke-width:2;marker:none;enable-background:accumulate" />
  </g>
</svg>
