<?xml version="1.0" encoding="UTF-8" standalone="no"?>
<!-- Created with Inkscape (http://www.inkscape.org/) -->

<svg
   xmlns:dc="http://purl.org/dc/elements/1.1/"
   xmlns:cc="http://creativecommons.org/ns#"
   xmlns:rdf="http://www.w3.org/1999/02/22-rdf-syntax-ns#"
   xmlns:svg="http://www.w3.org/2000/svg"
   xmlns="http://www.w3.org/2000/svg"
   xmlns:sodipodi="http://sodipodi.sourceforge.net/DTD/sodipodi-0.dtd"
   xmlns:inkscape="http://www.inkscape.org/namespaces/inkscape"
   width="24"
   height="24"
   viewBox="0 0 24.000001 24.000001"
   id="svg4725"
   version="1.1"
   inkscape:version="0.91 r13725"
   sodipodi:docname="ic_notification.svg">
  <defs
     id="defs4727" />
  <sodipodi:namedview
     id="base"
     pagecolor="#000000"
     bordercolor="#666666"
     borderopacity="1.0"
     inkscape:pageopacity="0"
     inkscape:pageshadow="2"
     inkscape:zoom="24.100556"
     inkscape:cx="3.7701045"
     inkscape:cy="12.064266"
     inkscape:document-units="px"
     inkscape:current-layer="layer1"
     showgrid="false"
     inkscape:showpageshadow="false"
     units="px"
     inkscape:window-width="1920"
     inkscape:window-height="1014"
     inkscape:window-x="0"
     inkscape:window-y="27"
     inkscape:window-maximized="1" />
  <metadata
     id="metadata4730">
    <rdf:RDF>
      <cc:Work
         rdf:about="">
        <dc:format>image/svg+xml</dc:format>
        <dc:type
           rdf:resource="http://purl.org/dc/dcmitype/StillImage" />
        <dc:title></dc:title>
      </cc:Work>
    </rdf:RDF>
  </metadata>
  <g
     inkscape:label="Layer 1"
     inkscape:groupmode="layer"
     id="layer1"
     transform="translate(0,-1028.3622)">
    <path
       style="color:#000000;font-style:normal;font-variant:normal;font-weight:normal;font-stretch:normal;font-size:medium;line-height:normal;font-family:Sans;-inkscape-font-specification:Sans;text-indent:0;text-align:start;text-decoration:none;text-decoration-line:none;letter-spacing:normal;word-spacing:normal;text-transform:none;direction:ltr;block-progression:tb;writing-mode:lr-tb;baseline-shift:baseline;text-anchor:start;display:inline;overflow:visible;visibility:visible;fill:#ffffff;fill-opacity:1;stroke:none;stroke-width:2;marker:none;enable-background:accumulate"
       d="m 9.6627308,1029.7958 c -1.1341389,0.092 -1.846976,1.4694 -1.4393048,2.4916 0.1429771,0.8059 0.5790731,1.7687 0.00639,2.4947 -0.5537,0.2474 -0.4004714,-0.9187 -0.4845659,-1.4936 -0.084094,-0.5749 -0.5460197,-1.5741 -1.3753356,-1.4313 -1.9085051,0.2873 -3.3110317,1.9307 -4.0156594,3.635 -0.574989,1.1622 -0.2528729,2.694 0.8204035,3.4544 1.2873258,1.1526 2.9306939,1.8366 4.6169686,2.1429 0.8851995,0.3854 0.2878146,0.6417 -0.7260486,0.5325 -1.4257941,-0.2701 -2.7893802,-0.8657 -3.9165076,-1.7846 -0.9176521,-0.5762 -2.27445846,0.263 -2.1397661,1.348 -0.0375339,1.0981 0.5860997,2.0379 1.2585919,2.8451 0.6710232,0.767 0.3089719,1.9151 0.8747772,2.7187 0.8137826,0.7624 1.9635828,0.02 2.2117313,-0.9084 0.232551,-0.9805 1.5423555,-1.5176 2.3412686,-0.8619 0.4222165,0.5566 -1.180552,0.051 -1.4648921,0.5261 -0.6347389,1.1304 -0.8158834,2.4081 -0.2638725,3.4895 0.870864,1.3183 2.5403242,2.039 4.0972199,1.9303 1.782474,0.017 1.624613,-0.9125 1.61362,-1.7784 -0.01098,-0.8659 0.186522,-1.776 -0.78522,-1.4728 -0.409009,0.1971 -2.160543,0.424 -2.0390152,0 1.0940962,-0.1821 2.0362532,-0.2834 2.3204792,-1.489 0.02519,0.1619 0.761438,-2.0417 0.275067,-2.7314 -1.5015704,-0.7075 -2.2232956,0.075 -0.279865,-1.0491 0.497703,-0.1543 0.211006,-2.3383 -0.03838,-3.0209 -0.278985,-0.7596 -0.347169,-0.9197 -1.8439084,-0.9164 -1.53379,0.053 -3.176716,-0.4625 -4.1995704,-1.652 -1.0068321,0.6844 0.54293,-1.693 0.4941612,-0.5805 -0.5724285,0.3866 1.6473371,1.3436 2.6003435,1.5448 1.0407453,0.2116 2.1440101,-0.039 3.0065471,-0.6445 0.635874,-0.6672 0.452702,-1.6865 0.526146,-2.5283 -0.03076,-1.2536 0.05875,-2.5686 -0.383815,-3.7615 -0.305694,-0.6139 -0.953464,-1.1196 -1.6679935,-1.0475 l 0,0 z m 4.6745402,0 0,0 c -0.714529,-0.072 -1.362299,0.4335 -1.667993,1.0475 -0.442563,1.1928 -0.353052,2.5079 -0.383815,3.7614 0.07345,0.8418 -0.109728,1.8611 0.526146,2.5284 0.862537,0.6055 1.965802,0.856 3.006547,0.6445 0.953006,-0.2012 3.172772,-1.1582 2.600343,-1.5449 -0.04877,-1.1125 1.500994,1.2649 0.494162,0.5806 -1.022855,1.1894 -2.665781,1.7051 -4.199571,1.6519 -1.49674,0 -1.564924,0.1568 -1.843909,0.9164 -0.249388,0.6826 -0.536085,2.8666 -0.03838,3.0209 1.943432,1.1232 1.221706,0.3417 -0.279864,1.0491 -0.486372,0.6897 0.249881,2.8934 0.275067,2.7315 0.284226,1.2055 1.226382,1.3068 2.320478,1.4889 0.121528,0.4241 -1.628406,0.1972 -2.037415,0 -0.971742,-0.3031 -0.77584,0.6069 -0.786819,1.4729 -0.011,0.8658 -0.168854,1.7955 1.61362,1.7783 1.556896,0.1088 3.226356,-0.6119 4.09722,-1.9302 0.552011,-1.0815 0.370866,-2.3592 -0.263873,-3.4896 -0.284341,-0.4752 -1.887108,0.03 -1.464892,-0.5261 0.798913,-0.6557 2.108718,-0.1185 2.341269,0.862 0.248148,0.9282 1.397949,1.6707 2.211731,0.9084 0.565805,-0.8036 0.203753,-1.9518 0.874777,-2.7187 0.672492,-0.8073 1.296126,-1.747 1.258592,-2.8451 0.134692,-1.0851 -1.222113,-1.9243 -2.139766,-1.3481 -1.127128,0.9189 -2.490714,1.5145 -3.916507,1.7847 -1.013864,0.1092 -1.611249,-0.1472 -0.72605,-0.5325 1.686275,-0.3064 3.329643,-0.9904 4.616969,-2.143 1.073277,-0.7603 1.396992,-2.2921 0.822003,-3.4544 -0.704629,-1.7042 -2.108754,-3.3476 -4.017259,-3.635 -0.829316,-0.1428 -1.29124,0.8564 -1.375335,1.4313 -0.08409,0.5749 0.06913,1.741 -0.484566,1.4937 -0.572676,-0.7261 -0.13658,-1.6889 0.0064,-2.4948 0.40767,-1.0221 -0.305166,-2.3991 -1.439305,-2.4916 z"
       id="path3359"
       inkscape:connector-curvature="0" />
  </g>
</svg>
