<?xml version="1.0" encoding="UTF-8" standalone="no"?>
<!-- Created with Inkscape (http://www.inkscape.org/) -->

<svg
   xmlns:dc="http://purl.org/dc/elements/1.1/"
   xmlns:cc="http://creativecommons.org/ns#"
   xmlns:rdf="http://www.w3.org/1999/02/22-rdf-syntax-ns#"
   xmlns:svg="http://www.w3.org/2000/svg"
   xmlns="http://www.w3.org/2000/svg"
   xmlns:sodipodi="http://sodipodi.sourceforge.net/DTD/sodipodi-0.dtd"
   xmlns:inkscape="http://www.inkscape.org/namespaces/inkscape"
   width="128"
   height="128"
   viewBox="0 0 128.00001 128.00001"
   id="svg4725"
   version="1.1"
   inkscape:version="0.91 r13725"
   sodipodi:docname="logo.svg">
  <defs
     id="defs4727" />
  <sodipodi:namedview
     id="base"
     pagecolor="#000000"
     bordercolor="#666666"
     borderopacity="1.0"
     inkscape:pageopacity="0"
     inkscape:pageshadow="2"
     inkscape:zoom="3.21875"
     inkscape:cx="26.419703"
     inkscape:cy="47.033194"
     inkscape:document-units="px"
     inkscape:current-layer="layer1"
     showgrid="false"
     inkscape:showpageshadow="false"
     units="px"
     inkscape:window-width="1920"
     inkscape:window-height="1016"
     inkscape:window-x="0"
     inkscape:window-y="27"
     inkscape:window-maximized="1"
     fit-margin-top="0"
     fit-margin-left="0"
     fit-margin-right="0"
     fit-margin-bottom="0" />
  <metadata
     id="metadata4730">
    <rdf:RDF>
      <cc:Work
         rdf:about="">
        <dc:format>image/svg+xml</dc:format>
        <dc:type
           rdf:resource="http://purl.org/dc/dcmitype/StillImage" />
        <dc:title />
      </cc:Work>
    </rdf:RDF>
  </metadata>
  <g
     inkscape:label="Layer 1"
     inkscape:groupmode="layer"
     id="layer1"
     transform="translate(52.000004,52.000004)">
    <path
       style="color:#000000;font-style:normal;font-variant:normal;font-weight:normal;font-stretch:normal;font-size:medium;line-height:normal;font-family:Sans;-inkscape-font-specification:Sans;text-indent:0;text-align:start;text-decoration:none;text-decoration-line:none;letter-spacing:normal;word-spacing:normal;text-transform:none;direction:ltr;block-progression:tb;writing-mode:lr-tb;baseline-shift:baseline;text-anchor:start;display:inline;overflow:visible;visibility:visible;fill:#999999;fill-opacity:1;stroke:none;stroke-width:2;marker:none;enable-background:accumulate;opacity:1"
       d="m -0.46542392,-44.3544 c -6.04874118,0.490667 -9.85053908,7.836801 -7.67629278,13.288535 0.7625446,4.298133 3.0883901,9.433067 0.03408,13.305067 -2.9530673,1.319467 -2.1358473,-4.899734 -2.5843513,-7.965867 -0.448502,-3.066134 -2.912106,-8.395201 -7.335124,-7.633601 -10.178695,1.532267 -17.658837,10.297068 -21.416852,19.386668 -3.066608,6.1984008 -1.348655,14.36800134 4.375486,18.4234699 6.865738,6.1472001 15.630369,9.7952011 24.623834,11.4288011 4.7210645,2.055466 1.5350115,3.4224 -3.872259,2.84 -7.604236,-1.440534 -14.876696,-4.617067 -20.888042,-9.5178675 -4.894145,-3.0730668 -12.130446,1.4026665 -11.412087,7.1893335 -0.200181,5.856534 3.125865,10.868801 6.712491,15.173868 3.57879,4.090667 1.64785,10.213867 4.665478,14.499734 4.340175,4.066134 10.472443,0.106667 11.795901,-4.8448 1.240273,-5.229334 8.225897,-8.093867 12.486767,-4.5968 2.2518217,2.968533 -6.296278,0.272 -7.812758,2.805867 -3.385275,6.0288 -4.351379,12.843201 -1.40732,18.610668 4.644608,7.030933 13.5483964,10.874667 21.851838,10.294934 9.506529,0.09067 8.664603,-4.866667 8.605974,-9.484801 -0.05856,-4.618134 0.994784,-9.472001 -4.1878403,-7.854934 -2.1813815,1.0512 -11.5228942,2.261334 -10.8747459,0 C 1.053933,50.022675 6.078768,49.482408 7.5946401,43.052541 7.7289868,43.916008 11.655643,32.163474 9.0616642,28.485074 1.0532908,24.71174 -2.7959105,28.885074 7.5690508,22.889873 10.223467,22.06694 8.6944162,10.418939 7.3643574,6.7784054 5.8764373,2.7272051 5.5127893,1.8733384 -2.4698187,1.8909384 -10.650033,2.1736051 -19.412305,-0.57573006 -24.867529,-6.9197305 c -5.369772,3.6501336 2.895627,-9.0293335 2.635527,-3.0960005 -3.052953,2.0618671 8.785798,7.1658674 13.8684991,8.2389342 5.550642,1.1285334 11.4347187,-0.208 16.0349163,-3.4373336 3.3913286,-3.5584002 2.4144106,-8.9946676 2.8061126,-13.4842676 -0.164054,-6.685867 0.313333,-13.699201 -2.0470138,-20.061335 -1.6303682,-3.274133 -5.0851417,-5.9712 -8.89596332,-5.586667 l 0,0 z m 24.93088092,0 0,0 c -3.810821,-0.384 -7.265595,2.312 -8.895963,5.586667 -2.360336,6.361601 -1.882944,13.375468 -2.047013,20.060802 0.391733,4.4896 -0.585217,9.925867 2.806112,13.4848006 4.600197,3.2293336 10.484278,4.56533366 16.034918,3.4373336 5.082699,-1.0730668 16.921452,-6.1770671 13.868497,-8.2394672 -0.260107,-5.933334 8.005302,6.7461337 2.635531,3.0965335 -5.455227,6.3434671 -14.2175,9.0938689 -22.397714,8.8101355 -7.982613,0 -8.346262,0.8362668 -9.834182,4.887467 -1.330069,3.640534 -2.85912,15.288534 -0.204693,16.111468 10.364971,5.9904 6.515766,1.8224 -1.492608,5.5952 -2.593984,3.6784 1.332699,15.431468 1.467024,14.568001 1.515872,6.429334 6.540704,6.969601 12.375884,7.940801 0.648149,2.261867 -8.684833,1.051733 -10.866215,0 -5.182624,-1.616534 -4.137813,3.2368 -4.196368,7.855467 -0.05867,4.6176 -0.900555,9.576001 8.605974,9.484267 8.303446,0.580267 17.207233,-3.263467 21.851842,-10.2944 2.944058,-5.768001 1.977952,-12.582401 -1.407323,-18.611202 -1.516486,-2.5344 -10.064577,0.16 -7.812758,-2.805867 4.26087,-3.497066 11.246497,-0.632 12.486769,4.597334 1.323456,4.9504 7.455728,8.910401 11.795899,4.8448 3.017627,-4.285867 1.086683,-10.4096 4.665478,-14.499734 3.586624,-4.3056 6.912672,-9.317334 6.712491,-15.173868 0.718357,-5.7872 -6.517936,-10.2629337 -11.412086,-7.1898668 -6.01135,4.9008008 -13.283809,8.0773338 -20.888039,9.5184008 -5.407275,0.5824 -8.593328,-0.785067 -3.872267,-2.84 8.993468,-1.634134 17.758097,-5.282134 24.623837,-11.4293345 5.724144,-4.05493517 7.450624,-12.2245357 4.384016,-18.4234695 -3.758022,-9.089067 -11.246689,-17.853868 -21.425383,-19.386668 -4.423019,-0.7616 -6.886614,4.567467 -7.33512,7.633601 -0.44848,3.066133 0.368693,9.285334 -2.584353,7.9664 -3.054272,-3.872534 -0.728426,-9.007467 0.03413,-13.305601 2.17424,-5.4512 -1.627552,-12.795201 -7.676294,-13.288534 z"
       id="path3359"
       inkscape:connector-curvature="0" />
  </g>
</svg>
